<svg xmlns="http://www.w3.org/2000/svg" viewBox="0 0 24 24" fill="currentColor" aria-hidden="true">
  <path d="M12 .5C5.649.5.5 5.649.5 12A11.51 11.51 0 0 0 8.342 22.94c.61.113.833-.265.833-.588 0-.29-.011-1.056-.017-2.07-3.394.737-4.111-1.636-4.111-1.636-.555-1.41-1.355-1.787-1.355-1.787-1.108-.758.084-.743.084-.743 1.225.086 1.869 1.258 1.869 1.258 1.09 1.87 2.861 1.33 3.556 1.017.109-.789.427-1.33.777-1.636-2.715-.31-5.568-1.357-5.568-6.04 0-1.334.476-2.425 1.258-3.28-.127-.308-.545-1.552.118-3.235 0 0 1.026-.329 3.36 1.253a11.74 11.74 0 0 1 6.114 0c2.334-1.582 3.358-1.253 3.358-1.253.664 1.683.246 2.927.12 3.235.784.855 1.257 1.946 1.257 3.28 0 4.695-2.859 5.726-5.581 6.03.44.379.83 1.124.83 2.266 0 1.638-.015 2.96-.015 3.364 0 .326.22.707.839.587A11.51 11.51 0 0 0 23.5 12C23.5 5.649 18.351.5 12 .5Z"/>
</svg>
