<svg xmlns="http://www.w3.org/2000/svg" viewBox="0 0 24 24" fill="currentColor" aria-hidden="true">
  <path d="M7.5.75h9A6.76 6.76 0 0 1 23.25 7.5v9A6.76 6.76 0 0 1 16.5 23.25h-9A6.76 6.76 0 0 1 .75 16.5v-9A6.76 6.76 0 0 1 7.5.75Zm0 1.5A5.26 5.26 0 0 0 2.25 7.5v9a5.26 5.26 0 0 0 5.25 5.25h9A5.26 5.26 0 0 0 21.75 16.5v-9A5.26 5.26 0 0 0 16.5 2.25h-9Zm9.75 1.5a1.125 1.125 0 1 1 0 2.25 1.125 1.125 0 0 1 0-2.25Zm-5.25 1.5A6.75 6.75 0 1 1 5.25 12 6.758 6.758 0 0 1 12 5.25Zm0 1.5A5.25 5.25 0 1 0 17.25 12 5.256 5.256 0 0 0 12 6.75Z"/>
</svg>
