<svg width="39" height="27" viewBox="0 0 39 27" fill="none" xmlns="http://www.w3.org/2000/svg">
<path d="M0.500098 26.6602C0.166764 26.6602 9.77516e-05 26.4935 9.77516e-05 26.1602V4.46016C9.77516e-05 4.15349 0.113431 3.88682 0.340098 3.66015L3.6601 0.320156C3.88676 0.106822 4.15343 0.000154972 4.4601 0.000154972H9.0401C9.34676 0.000154972 9.61343 0.106822 9.8401 0.320156L13.2001 3.70016H14.1401L17.5001 0.320156C17.7268 0.106822 17.9934 0.000154972 18.3001 0.000154972H22.8601C23.1801 0.000154972 23.4468 0.106822 23.6601 0.320156L27.0001 3.66015C27.2268 3.88682 27.3401 4.15349 27.3401 4.46016V26.1602C27.3401 26.4935 27.1734 26.6602 26.8401 26.6602H21.1601C20.8268 26.6602 20.6601 26.4935 20.6601 26.1602V5.32016H17.0001V26.1602C17.0001 26.4935 16.8334 26.6602 16.5001 26.6602H10.8401C10.5068 26.6602 10.3401 26.4935 10.3401 26.1602V5.32016H6.6601V26.1602C6.6601 26.4935 6.49343 26.6602 6.1601 26.6602H0.500098ZM32.6485 26.6602C32.3152 26.6602 32.1485 26.4935 32.1485 26.1602V0.500154C32.1485 0.166821 32.3152 0.000154972 32.6485 0.000154972H38.3085C38.6419 0.000154972 38.8085 0.166821 38.8085 0.500154V26.1602C38.8085 26.4935 38.6419 26.6602 38.3085 26.6602H32.6485Z" fill="white"/>
</svg>
